<?xml version="1.0" standalone="no"?>
<!DOCTYPE svg PUBLIC "-//W3C//DTD SVG 20010904//EN"
 "http://www.w3.org/TR/2001/REC-SVG-20010904/DTD/svg10.dtd">
<svg version="1.0" xmlns="http://www.w3.org/2000/svg"
 width="460.000000pt" height="460.000000pt" viewBox="0 0 460.000000 460.000000"
 preserveAspectRatio="xMidYMid meet">
<metadata>
Created by potrace 1.14, written by Peter Selinger 2001-2017
</metadata>
<g transform="translate(0.000000,460.000000) scale(0.100000,-0.100000)"
fill="#000000" stroke="none">
<path d="M1499 4563 c-23 -21 -78 -73 -122 -115 -43 -43 -83 -78 -88 -78 -5 0
-9 -7 -9 -15 0 -8 -9 -19 -19 -25 -11 -5 -22 -18 -26 -27 -8 -26 -70 -62 -94
-56 -16 4 -19 1 -14 -17 3 -12 2 -25 -3 -29 -14 -9 -64 -89 -64 -101 0 -5 -4
-10 -9 -10 -4 0 -11 -19 -14 -42 -6 -43 -11 -70 -27 -142 -7 -32 -6 -42 8 -52
12 -9 13 -15 5 -25 -15 -20 -25 -120 -12 -135 15 -18 -42 -61 -156 -114 -275
-129 -290 -136 -346 -156 -23 -8 -47 -18 -53 -22 -11 -9 -133 -38 -198 -47
-21 -3 -43 -14 -50 -24 -10 -13 -31 -19 -83 -23 -99 -8 -125 -22 -125 -68 l0
-37 82 19 c81 20 154 24 310 19 67 -2 85 2 130 24 28 14 72 48 98 75 25 28 50
50 55 50 5 0 23 15 40 34 28 31 196 131 181 108 -3 -6 0 -12 6 -15 10 -3 10
-8 -1 -21 -10 -12 6 -7 48 14 34 18 65 30 67 27 7 -6 -66 -54 -146 -96 -36
-19 -66 -38 -68 -43 -2 -4 -11 -8 -20 -9 -9 0 -12 -3 -6 -5 6 -3 23 2 39 10
24 13 31 13 50 0 28 -18 23 -51 -9 -64 -11 -5 -15 -9 -8 -9 18 -1 9 -66 -12
-90 -9 -9 -16 -23 -16 -29 0 -7 -6 -12 -14 -12 -8 0 -18 -9 -21 -21 -4 -12
-13 -18 -20 -15 -9 3 -12 0 -8 -10 3 -8 -1 -14 -11 -14 -19 0 -22 -26 -3 -34
9 -3 8 -8 -3 -18 -8 -7 -21 -25 -27 -40 -7 -16 -18 -28 -24 -28 -6 0 -8 -7 -5
-16 4 -10 -3 -25 -19 -39 -13 -13 -20 -25 -14 -27 14 -5 -25 -75 -58 -106 -13
-12 -28 -20 -33 -17 -9 6 -20 -18 -20 -46 0 -12 -7 -19 -20 -19 -26 0 -26 -16
1 -23 17 -5 19 -9 10 -26 -6 -11 -11 -31 -11 -46 0 -17 -7 -28 -22 -34 -13 -5
-17 -10 -10 -15 6 -4 9 -13 5 -21 -4 -11 2 -15 19 -15 21 0 25 -5 26 -32 0
-18 6 -41 12 -53 13 -25 -1 -72 -25 -81 -22 -9 -83 41 -100 82 -8 19 -21 37
-30 40 -8 3 -15 12 -15 19 0 7 -6 13 -12 12 -37 -1 -46 4 -41 22 4 15 -3 21
-34 29 -21 5 -30 10 -21 11 12 1 0 17 -37 56 -30 30 -59 55 -64 55 -18 0 -32
-68 -30 -158 1 -49 -2 -95 -5 -100 -3 -6 0 -12 6 -15 10 -4 10 -7 0 -18 -10
-11 -9 -16 9 -30 18 -14 20 -19 9 -38 -6 -13 -9 -25 -6 -29 3 -3 6 0 6 7 0 7
5 9 10 6 19 -12 11 -45 -10 -45 -11 0 -20 -4 -20 -10 0 -18 48 -11 53 7 3 13
5 12 6 -5 1 -15 5 -21 13 -16 8 5 9 -2 5 -24 -4 -18 -2 -32 3 -32 15 0 40 -62
40 -101 0 -51 -39 -91 -54 -54 -3 8 -12 15 -20 15 -8 0 -23 11 -34 25 -11 14
-25 25 -31 25 -7 0 -23 11 -37 25 -30 30 -28 30 -59 3 l-25 -22 0 -663 0 -663
41 20 40 21 -7 -27 -7 -26 59 8 c33 4 78 7 101 7 25 0 41 5 40 11 -1 6 5 11
13 11 8 0 14 -5 13 -11 -2 -8 13 -7 47 4 39 12 52 13 64 3 13 -11 13 -15 -4
-33 -13 -14 -25 -18 -41 -13 -18 6 -21 4 -16 -9 5 -11 1 -16 -13 -16 -11 0
-20 5 -20 10 0 6 -7 10 -15 10 -8 0 -15 -4 -15 -10 0 -5 7 -10 16 -10 9 0 14
-6 11 -12 -2 -7 -11 -12 -20 -10 -23 4 -30 -16 -8 -23 24 -7 117 31 125 51 3
8 13 14 22 14 10 0 14 5 11 14 -3 8 0 17 7 19 22 9 122 19 203 22 43 1 126 5
184 10 91 7 107 6 112 -7 4 -13 -4 -16 -51 -16 -67 0 -135 -11 -143 -24 -3 -5
-22 -10 -42 -11 -20 -2 -40 -7 -44 -11 -5 -5 12 -5 37 -1 25 3 73 8 108 9 37
1 66 7 71 14 6 9 15 10 40 1 28 -10 30 -13 15 -24 -14 -10 -6 -11 42 -4 32 5
79 6 104 2 25 -4 53 -6 64 -4 11 2 16 -2 12 -8 -5 -7 2 -11 18 -11 14 0 28 4
31 10 15 24 98 -2 88 -27 -5 -13 2 -15 35 -11 23 2 42 0 42 -4 0 -4 20 -10 45
-14 35 -5 50 -3 64 10 23 21 45 21 37 0 -5 -13 -3 -14 6 -7 7 5 28 8 46 7 17
-1 41 -2 53 -3 39 -2 13 -26 -42 -38 -49 -10 -50 -11 -19 -13 117 -6 280 -4
280 4 0 5 7 3 15 -4 8 -7 42 -13 75 -14 57 0 59 -2 54 -23 -5 -18 -2 -23 14
-23 12 0 24 5 27 10 8 13 52 13 60 0 4 -6 -6 -10 -22 -11 -15 0 -37 -4 -48 -9
-18 -7 -18 -8 8 -15 16 -4 33 -3 41 4 8 7 25 9 40 5 28 -7 36 -24 11 -24 -8 0
-15 -9 -15 -20 0 -24 -63 -45 -91 -30 -10 6 -30 9 -46 9 -18 -1 -22 -3 -10 -6
10 -3 16 -11 13 -18 -8 -23 21 -38 59 -31 35 7 46 20 23 29 -7 2 10 8 37 11
28 4 61 11 75 15 17 6 29 4 38 -5 8 -9 36 -14 81 -14 70 0 128 -14 146 -34 6
-7 25 -18 42 -25 18 -7 49 -32 68 -55 19 -22 42 -49 50 -58 8 -10 15 -23 15
-29 0 -6 9 -22 20 -36 11 -14 20 -32 20 -39 0 -8 7 -14 15 -14 8 0 15 -4 15
-10 0 -19 87 0 121 26 8 6 35 17 62 24 26 7 47 16 47 20 0 13 -107 43 -132 37
-13 -3 -37 -11 -55 -18 -30 -12 -35 -11 -70 17 -21 17 -50 56 -65 86 -29 59
-74 91 -166 118 -50 16 -69 35 -74 75 -2 23 4 36 27 57 17 15 33 28 37 28 8 0
63 50 55 50 -3 0 7 13 21 28 15 16 45 50 67 76 22 26 47 54 55 63 28 31 93 51
168 52 47 1 79 6 87 15 16 16 102 49 168 65 62 14 184 15 189 0 5 -14 128 -22
128 -9 0 6 -7 10 -15 10 -8 0 -15 5 -15 10 0 6 5 10 11 10 8 0 8 4 0 14 -9 11
-8 17 3 29 11 10 13 23 7 43 -8 31 -13 27 -31 -29 -10 -32 -14 -36 -26 -26
-12 10 -12 14 -2 20 10 7 10 9 -1 9 -10 0 -11 7 -6 28 8 29 8 79 -1 94 -3 5
-19 -6 -35 -23 -16 -17 -26 -35 -23 -40 3 -5 0 -9 -5 -9 -6 0 -11 -13 -11 -29
0 -16 -3 -36 -6 -45 -8 -20 -40 -21 -48 -1 -3 8 -12 12 -21 9 -11 -5 -15 1
-15 20 0 14 5 26 11 26 6 0 9 9 6 19 -5 21 56 86 72 77 5 -3 14 1 20 8 23 27
-9 28 -41 1 -17 -14 -37 -24 -44 -21 -8 3 -14 2 -14 -3 0 -4 -10 -20 -23 -34
-16 -19 -26 -24 -37 -17 -12 8 -12 10 -1 10 8 0 11 7 8 20 -3 10 1 24 9 31 8
6 14 24 14 38 0 15 9 37 19 48 11 12 17 24 14 27 -13 12 -36 5 -54 -16 -13
-14 -19 -16 -19 -7 0 12 -2 12 -9 0 -7 -11 -13 -12 -23 -4 -10 8 -18 8 -31 -1
-26 -19 -21 -24 23 -21 43 2 46 -1 26 -28 -8 -10 -20 -15 -30 -11 -9 3 -16 1
-16 -5 0 -6 6 -11 13 -11 6 0 4 -5 -6 -11 -9 -5 -21 -7 -26 -4 -6 3 -14 -3
-20 -12 -10 -17 -10 -17 -12 2 -1 11 -1 23 0 27 0 5 -4 8 -9 8 -18 0 -11 18
10 25 11 3 20 10 20 15 0 12 -64 3 -68 -10 -2 -5 -13 -10 -25 -10 -20 1 -21 2
-5 14 10 7 15 16 11 19 -3 4 -1 8 5 8 21 3 27 4 47 16 19 12 18 12 -7 13 -15
0 -30 -4 -33 -10 -3 -5 -12 -10 -18 -9 -9 0 -8 2 1 6 6 2 10 9 6 14 -3 5 9 9
27 9 18 0 30 3 26 6 -3 4 -25 6 -49 6 -38 0 -40 1 -18 9 35 14 136 7 132 -9
-2 -10 13 -11 65 -6 38 4 70 8 72 11 3 2 10 -10 17 -27 10 -22 20 -30 39 -30
14 0 25 4 25 10 0 5 6 8 13 5 13 -4 177 -16 262 -20 73 -3 117 -14 142 -37 20
-19 149 -51 165 -42 4 3 2 15 -4 29 -13 29 -3 120 17 155 8 14 18 34 24 46 10
23 62 64 104 82 39 17 42 35 18 94 -19 47 -20 53 -6 75 9 12 22 23 30 23 7 0
16 9 20 19 3 11 15 23 26 26 29 9 46 50 29 70 -7 8 -8 15 -2 15 5 0 15 -7 22
-15 18 -21 35 -4 22 21 -6 11 -13 45 -17 77 -7 57 -7 57 16 48 13 -4 24 -12
25 -17 0 -5 4 -17 7 -26 4 -10 9 -25 12 -33 7 -23 25 -18 25 8 -1 12 -14 38
-30 57 -26 29 -28 36 -16 48 16 16 36 8 36 -14 0 -8 5 -14 10 -14 6 0 10 -6
10 -13 0 -23 24 -47 38 -38 11 7 11 17 -2 59 -8 29 -11 54 -6 57 4 3 6 14 3
25 -3 11 0 20 6 20 6 0 11 5 11 10 0 16 -27 11 -34 -6 -4 -11 -13 -14 -30 -10
-18 4 -26 1 -30 -11 -3 -10 -22 -31 -42 -47 -28 -22 -41 -27 -53 -19 -9 6 -17
15 -17 22 -1 6 -2 15 -3 20 0 5 -10 11 -21 14 -12 3 -20 14 -20 25 0 11 -7 23
-16 26 -22 8 -22 9 -17 -19 5 -23 4 -24 -28 -12 -45 15 -46 17 -29 27 10 7 11
10 3 10 -7 0 -13 8 -13 18 0 22 -102 131 -158 167 -34 22 -45 38 -55 72 -6 23
-17 43 -24 43 -7 0 -13 5 -13 11 0 5 -5 7 -10 4 -6 -4 -16 -2 -23 3 -7 6 -23
10 -37 9 -14 0 -59 5 -100 11 -41 7 -115 16 -165 21 -88 9 -87 9 50 7 77 -1
129 1 115 5 -14 4 -38 7 -53 8 -16 1 -26 5 -22 11 4 6 -9 10 -31 10 -47 0 -39
10 10 12 20 1 36 5 36 10 0 4 14 8 30 8 22 0 30 5 30 18 0 10 9 24 20 32 28
20 25 26 -12 35 -28 7 -29 9 -11 12 19 4 54 33 39 33 -3 0 24 29 59 64 36 35
65 68 65 73 0 5 13 17 30 26 17 10 30 24 30 31 0 7 18 25 40 42 22 16 53 39
68 52 64 54 128 82 185 82 80 0 81 11 11 69 -15 13 -15 15 7 32 23 17 23 18 4
39 -17 19 -27 21 -85 16 -36 -2 -76 -7 -90 -9 -14 -2 -33 -5 -42 -5 -11 -1
-15 -7 -12 -17 4 -9 0 -15 -9 -15 -8 0 -20 7 -27 15 -13 16 -50 21 -50 6 0 -5
7 -14 15 -21 17 -14 9 -34 -10 -26 -8 3 -19 -2 -25 -10 -17 -19 -41 -18 -47 4
-2 10 -25 31 -51 47 -26 16 -50 34 -54 40 -11 15 33 24 55 11 13 -8 20 -7 27
4 8 12 10 11 10 -6 0 -16 7 -21 39 -22 27 -2 40 2 45 13 3 8 18 20 33 27 l28
11 -44 8 c-45 9 -70 23 -59 35 3 3 20 -2 37 -10 19 -10 32 -12 36 -6 8 12 -2
30 -17 30 -6 0 -17 8 -24 18 -10 14 -15 15 -25 5 -19 -19 -59 -16 -59 3 0 17
85 108 103 110 7 1 19 2 27 3 24 2 -43 54 -115 89 -74 37 -79 38 -65 13 15
-29 12 -36 -16 -38 -15 0 -36 -12 -48 -25 -12 -12 -39 -34 -59 -48 -20 -14
-35 -29 -33 -35 2 -5 -14 -11 -36 -12 -26 -2 -37 1 -32 8 4 7 0 9 -14 5 -17
-6 -21 -1 -27 24 -4 17 -22 46 -40 64 -30 30 -40 34 -111 40 -131 11 -144 15
-144 41 0 33 17 75 38 94 10 9 16 24 14 34 -2 12 8 22 37 36 23 10 39 20 36
23 -3 3 17 13 45 22 40 13 74 15 158 11 106 -5 106 -5 57 9 -27 8 -62 17 -76
20 -14 3 -36 15 -50 27 -18 16 -32 19 -58 15 -19 -3 -37 -9 -40 -13 -3 -4 -16
-9 -29 -10 -20 -3 -22 0 -16 25 10 42 58 107 76 104 9 -1 19 2 23 8 3 5 1 10
-4 10 -17 0 -13 32 8 76 37 77 37 84 -3 84 -19 0 -38 -4 -41 -10 -3 -5 -16
-10 -28 -10 -12 0 -49 -14 -81 -30 -58 -30 -59 -30 -73 -10 -16 23 -36 17 -51
-15 -15 -33 -88 -44 -136 -21 -19 9 -42 16 -51 16 -9 0 -19 9 -22 19 -3 11
-11 22 -18 25 -7 2 -15 20 -19 39 -8 45 -36 53 -67 21 -20 -22 -30 -24 -95
-22 -40 2 -71 5 -69 8 2 3 -15 6 -37 7 -36 1 -28 -5 84 -61 114 -57 308 -174
308 -186 0 -3 -20 -16 -43 -29 -30 -16 -52 -22 -69 -18 -26 7 -48 43 -48 79 0
24 -7 31 -118 103 -104 69 -148 91 -225 115 -175 53 -547 116 -632 107 -27 -3
-76 -16 -108 -30 -37 -15 -69 -22 -90 -18 -31 5 -31 5 13 13 25 4 54 12 65 17
11 5 44 17 73 26 28 9 52 18 52 20 0 7 -116 -1 -129 -9 -13 -8 -41 15 -41 34
0 4 22 32 49 63 58 66 89 107 120 160 l23 37 -65 0 c-60 0 -67 -3 -108 -37z
m510 -350 c33 -19 40 -33 17 -33 -8 0 -18 -5 -22 -11 -5 -8 3 -10 25 -7 17 2
31 1 31 -4 0 -4 8 -8 18 -8 9 0 31 -7 47 -16 17 -9 44 -18 60 -20 57 -7 75
-13 89 -26 7 -7 23 -20 35 -28 11 -8 21 -20 21 -26 0 -23 -292 -2 -491 36
-143 27 -253 50 -258 56 -10 10 65 75 81 70 10 -2 18 0 18 5 0 4 6 6 14 3 8
-3 17 -1 20 4 6 11 75 5 91 -7 5 -5 25 -12 43 -16 28 -6 32 -4 32 14 0 19 9
22 82 29 9 1 30 -6 47 -15z m-304 -153 c90 -10 240 -33 485 -75 47 -8 109 -18
138 -21 90 -11 57 -24 -45 -17 -99 6 -125 -4 -37 -14 27 -3 78 -8 114 -13 l65
-7 -60 -2 c-33 0 -132 6 -220 14 -146 13 -207 22 -465 69 -47 9 -88 16 -91 16
-4 0 -10 7 -13 16 -5 13 -1 15 19 12 14 -3 25 -1 25 3 0 5 -9 9 -19 9 -27 0
-51 10 -51 22 0 5 12 7 28 4 15 -3 72 -10 127 -16z m19 -100 c68 -10 96 -23
96 -42 0 -6 -9 -8 -20 -5 -11 3 -22 2 -25 -3 -6 -10 19 -20 47 -20 12 0 19 -3
15 -6 -3 -4 -44 -3 -91 1 -84 7 -84 7 -110 46 -32 47 -32 53 -3 45 12 -3 53
-11 91 -16z m816 -156 c0 -2 -7 -4 -15 -4 -8 0 -15 4 -15 10 0 5 7 7 15 4 8
-4 15 -8 15 -10z m-1684 -259 c-11 -8 -24 -15 -30 -15 -5 0 -1 7 10 15 10 8
24 14 29 14 6 0 1 -6 -9 -14z m1614 -222 c0 -13 5 -23 10 -23 6 0 10 -9 10
-20 0 -11 7 -20 15 -20 8 0 15 8 15 17 0 13 3 14 11 6 6 -6 12 -23 12 -38 0
-24 1 -25 17 -10 25 23 33 18 26 -15 -3 -17 -2 -29 2 -26 31 19 42 -45 28
-170 l-9 -71 43 -71 c31 -53 55 -79 93 -104 28 -18 55 -32 59 -30 5 1 8 -5 8
-13 0 -8 4 -15 9 -15 16 0 101 -93 101 -109 0 -9 14 -22 30 -28 29 -11 40 -36
20 -48 -5 -3 -10 -13 -10 -21 0 -11 19 -14 93 -14 50 0 99 -5 107 -10 10 -7
-9 -10 -64 -10 -70 0 -83 -3 -113 -26 -35 -27 -34 -38 2 -47 18 -4 18 -5 -2
-6 -22 -1 -34 -21 -13 -21 6 0 10 -5 10 -11 0 -5 -4 -7 -10 -4 -5 3 -10 3 -10
-2 0 -10 -62 -47 -73 -45 -4 1 -18 -3 -30 -10 -12 -7 -30 -11 -39 -9 -10 1
-18 -3 -18 -8 0 -17 -86 -5 -114 16 -36 26 -32 46 19 109 50 61 61 94 23 70
-13 -7 -40 -17 -61 -20 -36 -7 -37 -6 -32 17 4 14 2 28 -4 31 -6 4 -11 15 -11
24 0 10 -12 25 -27 34 -36 20 -68 9 -91 -32 -20 -34 -25 -36 -46 -14 -9 8 -16
11 -16 7 0 -16 64 -80 96 -96 34 -17 68 -62 59 -77 -3 -5 -1 -11 5 -15 15 -10
12 -25 -6 -25 -9 0 -25 -11 -36 -25 -11 -14 -24 -25 -30 -25 -6 0 -16 -7 -22
-15 -14 -20 -84 -29 -102 -14 -11 9 -14 8 -14 -5 0 -10 5 -14 10 -11 6 3 10 1
10 -5 0 -16 -33 -26 -38 -11 -3 8 -13 22 -24 33 -19 19 -21 19 -38 3 -15 -14
-25 -15 -49 -7 -31 11 -71 6 -71 -9 0 -5 5 -9 11 -9 5 0 7 -5 3 -12 -6 -9 -9
-9 -12 0 -2 7 -7 12 -12 12 -12 0 -86 -102 -98 -135 -8 -24 -11 -26 -11 -9 -1
12 15 44 34 70 19 27 38 56 42 64 4 8 15 22 25 32 11 9 15 19 10 22 -5 3 -17
-3 -27 -14 -10 -11 -21 -18 -25 -15 -7 5 -99 -63 -137 -102 -12 -12 -18 -25
-15 -29 4 -4 2 -4 -4 -1 -7 4 -23 -5 -38 -20 -14 -14 -26 -24 -26 -21 0 2 36
41 80 87 50 52 83 80 91 75 8 -4 9 -3 5 4 -4 7 -4 17 0 23 5 8 8 8 14 0 5 -9
10 -8 18 2 9 10 4 13 -29 12 -22 -1 -43 -6 -47 -11 -7 -11 -172 -96 -172 -89
0 2 24 17 53 34 28 17 45 31 37 31 -23 1 32 29 58 30 12 0 22 6 22 15 0 9 -6
12 -16 8 -9 -3 -19 -1 -23 5 -4 7 -19 6 -46 -4 -22 -7 -47 -13 -55 -13 -8 0 3
7 25 15 22 8 58 24 81 35 23 10 50 17 60 13 18 -5 18 -5 1 6 -9 6 -27 8 -38 5
-15 -5 -19 -4 -15 4 4 6 0 11 -9 11 -9 0 -13 -4 -10 -10 8 -13 -6 -13 -25 0
-13 9 -11 14 10 32 l25 21 -60 -6 c-68 -7 -109 6 -50 16 21 3 51 4 69 1 24 -4
27 -3 16 5 -12 9 -12 11 -1 11 7 0 21 8 30 18 9 10 25 24 36 30 18 10 16 12
-15 13 l-35 1 33 8 c45 11 65 30 31 31 -20 1 -19 2 10 10 19 6 35 18 38 30 3
10 12 19 21 19 13 0 12 3 -4 15 -10 8 -14 15 -7 15 7 0 10 7 7 15 -4 9 0 15
10 15 8 0 20 9 26 20 6 11 16 20 23 20 7 0 24 6 39 14 14 8 42 19 62 26 20 6
34 16 30 21 -3 5 2 12 11 15 9 4 14 12 12 18 -3 7 -1 32 3 57 5 26 4 49 -1 56
-6 6 -10 31 -10 55 0 23 -8 66 -17 95 -13 44 -14 56 -2 77 7 14 14 38 15 53 3
45 4 47 30 77 14 16 25 33 25 39 0 19 46 56 68 54 16 -1 22 -8 22 -24z m1058
-23 c-15 -24 -19 -21 -11 8 3 12 9 19 14 16 5 -3 3 -14 -3 -24z m-33 -140 c10
-11 14 -20 9 -20 -12 1 -44 25 -44 34 0 12 17 6 35 -14z m90 -31 c11 -17 -1
-21 -15 -4 -8 9 -8 15 -2 15 6 0 14 -5 17 -11z m-50 -27 c-8 -8 -25 10 -19 20
4 6 9 5 15 -3 4 -7 6 -15 4 -17z m-70 -9 c19 -9 35 -23 35 -30 0 -7 0 -16 1
-20 2 -20 -20 -11 -23 9 -2 18 -8 22 -30 20 -27 -3 -44 11 -33 28 8 13 8 13
50 -7z m-7 -71 c4 -25 -6 -28 -33 -9 -10 8 -15 19 -11 26 12 19 41 8 44 -17z
m-718 8 c0 -5 -4 -10 -10 -10 -5 0 -10 5 -10 10 0 6 5 10 10 10 6 0 10 -4 10
-10z m-805 -50 c3 -5 -1 -10 -9 -10 -9 0 -16 5 -16 10 0 6 4 10 9 10 6 0 13
-4 16 -10z m964 -17 c0 -25 -1 -26 -9 -8 -12 27 -12 35 0 35 6 0 10 -12 9 -27z
m411 -63 c0 -5 -4 -10 -10 -10 -5 0 -10 5 -10 10 0 6 5 10 10 10 6 0 10 -4 10
-10z m-426 -12 c-11 -21 -47 -58 -55 -58 -4 0 7 16 24 35 34 36 43 43 31 23z
m469 -205 c-7 -2 -21 -2 -30 0 -10 3 -4 5 12 5 17 0 24 -2 18 -5z m-126 -19
c-3 -3 -12 -4 -19 -1 -8 3 -5 6 6 6 11 1 17 -2 13 -5z m-40 -10 c-3 -3 -12 -4
-19 -1 -8 3 -5 6 6 6 11 1 17 -2 13 -5z m101 -11 c-10 -2 -26 -2 -35 0 -10 3
-2 5 17 5 19 0 27 -2 18 -5z m-70 -10 c-10 -2 -26 -2 -35 0 -10 3 -2 5 17 5
19 0 27 -2 18 -5z m222 -8 c0 -8 -4 -15 -10 -15 -5 0 -10 7 -10 15 0 8 5 15
10 15 6 0 10 -7 10 -15z m-364 -4 c-7 -11 -106 -34 -114 -27 -2 3 9 8 24 12
23 5 73 18 92 23 2 1 1 -3 -2 -8z m81 3 c-3 -3 -12 -4 -19 -1 -8 3 -5 6 6 6
11 1 17 -2 13 -5z m102 -88 c-2 -2 -53 -6 -114 -9 -70 -4 -104 -3 -95 3 14 9
219 15 209 6z m-242 -22 c-3 -3 -12 -4 -19 -1 -8 3 -5 6 6 6 11 1 17 -2 13 -5z
m-1174 -21 c-7 -2 -19 -2 -25 0 -7 3 -2 5 12 5 14 0 19 -2 13 -5z m124 1 c-3
-3 -12 -4 -19 -1 -8 3 -5 6 6 6 11 1 17 -2 13 -5z m1138 -74 l50 -7 -45 -1
c-25 0 -65 3 -90 7 l-45 8 40 1 c22 0 63 -3 90 -8z m113 -17 c-10 -2 -28 -2
-40 0 -13 2 -5 4 17 4 22 1 32 -1 23 -4z m-1374 -11 c3 -5 -8 -6 -25 -4 -16 2
-29 6 -29 8 0 8 49 4 54 -4z m1203 2 c-3 -3 -12 -4 -19 -1 -8 3 -5 6 6 6 11 1
17 -2 13 -5z m226 -1 c-7 -2 -19 -2 -25 0 -7 3 -2 5 12 5 14 0 19 -2 13 -5z
m-1610 -20 c-7 -2 -19 -2 -25 0 -7 3 -2 5 12 5 14 0 19 -2 13 -5z m130 0 c-7
-2 -19 -2 -25 0 -7 3 -2 5 12 5 14 0 19 -2 13 -5z m1374 1 c-3 -3 -12 -4 -19
-1 -8 3 -5 6 6 6 11 1 17 -2 13 -5z m-1570 -10 c-3 -3 -12 -4 -19 -1 -8 3 -5
6 6 6 11 1 17 -2 13 -5z m1460 0 c-3 -3 -12 -4 -19 -1 -8 3 -5 6 6 6 11 1 17
-2 13 -5z m-1150 -20 c-3 -3 -12 -4 -19 -1 -8 3 -5 6 6 6 11 1 17 -2 13 -5z
m1093 -4 c8 -5 11 -10 5 -10 -5 0 -17 5 -25 10 -8 5 -10 10 -5 10 6 0 17 -5
25 -10z m105 -30 c13 -6 15 -9 5 -9 -8 0 -22 4 -30 9 -18 12 -2 12 25 0z
m-1105 -34 c0 -3 -28 -19 -62 -36 -61 -30 -62 -30 -33 -5 39 34 95 58 95 41z
m-210 -46 c-8 -5 -19 -10 -25 -10 -5 0 -3 5 5 10 8 5 20 10 25 10 6 0 3 -5 -5
-10z m544 -11 c-29 -12 -36 -10 -22 5 7 7 19 11 27 8 11 -4 10 -7 -5 -13z
m-84 -3 c0 -2 -7 -7 -16 -10 -8 -3 -12 -2 -9 4 6 10 25 14 25 6z m-530 -16
c-8 -5 -19 -10 -25 -10 -5 0 -3 5 5 10 8 5 20 10 25 10 6 0 3 -5 -5 -10z
m2094 -52 c-4 -7 -7 -28 -7 -48 l2 -35 -10 33 c-5 17 -14 32 -20 32 -6 0 -8 4
-5 9 4 5 0 12 -6 14 -7 3 2 6 20 6 24 1 31 -3 26 -11z m-1207 -23 c-2 -31 -16
-36 -31 -12 -8 14 -8 20 4 27 23 15 29 12 27 -15z m41 5 c-13 -20 -28 -18 -28
3 0 7 9 13 20 14 16 1 18 -1 8 -17z m-118 -35 c0 -8 -4 -15 -10 -15 -5 0 -10
7 -10 15 0 8 5 15 10 15 6 0 10 -7 10 -15z m-840 -58 c0 -2 -10 -12 -22 -23
l-23 -19 19 23 c18 21 26 27 26 19z m161 -50 c-13 -12 -20 -15 -15 -7 12 22
28 39 33 34 3 -3 -6 -15 -18 -27z m2155 -12 c-3 -9 -16 -13 -33 -11 -40 5 -40
5 -13 21 23 13 23 14 5 16 -17 1 -16 2 5 8 27 8 46 -9 36 -34z m-169 0 c-4 -8
-11 -15 -17 -15 -7 0 -7 6 0 21 13 23 26 19 17 -6z m114 -58 c-10 -9 -11 -8
-5 6 3 10 9 15 12 12 3 -3 0 -11 -7 -18z m-81 -43 c0 -8 -4 -12 -10 -9 -5 3
-10 10 -10 16 0 5 5 9 10 9 6 0 10 -7 10 -16z m-1031 -440 c2 -2 -3 -6 -12
-10 -9 -3 -24 1 -33 11 -15 15 -14 15 12 9 16 -4 31 -8 33 -10z m94 -41 c-7
-2 -19 -2 -25 0 -7 3 -2 5 12 5 14 0 19 -2 13 -5z m-2398 -253 c-3 -5 -10 -10
-16 -10 -5 0 -9 5 -9 10 0 6 7 10 16 10 8 0 12 -4 9 -10z m55 -26 c0 -2 -7 -4
-15 -4 -8 0 -15 4 -15 10 0 5 7 7 15 4 8 -4 15 -8 15 -10z m28 -28 c-7 -8 -16
-12 -21 -9 -11 7 2 23 19 23 12 0 12 -2 2 -14z m-368 -26 c0 -5 -4 -10 -9 -10
-6 0 -13 5 -16 10 -3 6 1 10 9 10 9 0 16 -4 16 -10z m50 -20 c0 -5 -7 -10 -15
-10 -8 0 -15 5 -15 10 0 6 7 10 15 10 8 0 15 -4 15 -10z m420 -10 c0 -5 -8
-10 -17 -10 -15 0 -16 2 -3 10 19 12 20 12 20 0z m-360 -10 c0 -5 -9 -10 -20
-10 -11 0 -20 5 -20 10 0 6 9 10 20 10 11 0 20 -4 20 -10z m295 -10 c3 -6 -4
-10 -17 -10 -18 0 -20 2 -8 10 19 12 18 12 25 0z m-85 -20 c-8 -5 -19 -10 -25
-10 -5 0 -3 5 5 10 8 5 20 10 25 10 6 0 3 -5 -5 -10z m-115 -10 c-3 -5 -10
-10 -16 -10 -5 0 -9 5 -9 10 0 6 7 10 16 10 8 0 12 -4 9 -10z m-355 -36 c0 -8
-4 -14 -10 -14 -5 0 -10 5 -10 12 0 9 -3 9 -12 0 -17 -17 6 -39 39 -37 19 2
20 1 6 -2 -13 -2 -23 -9 -23 -15 0 -7 -5 -6 -14 2 -8 6 -23 10 -34 8 -34 -6
-17 37 23 59 22 13 35 8 35 -13z m396 6 c0 -23 -1 -23 -28 -9 -14 8 -23 8 -31
0 -7 -7 -3 -13 14 -20 23 -9 22 -10 -11 -11 -32 -1 -33 -2 -17 -14 20 -15 6
-33 -15 -20 -20 13 -67 14 -74 3 -4 -8 -9 -7 -15 2 -19 30 -10 39 34 35 23 -2
32 -2 19 1 -13 2 -19 9 -16 15 5 7 -2 9 -20 6 -18 -4 -26 -1 -26 8 0 17 67 19
72 3 2 -7 15 -6 38 4 51 22 76 21 76 -3z m-216 0 c0 -5 -4 -10 -10 -10 -5 0
-10 5 -10 10 0 6 5 10 10 10 6 0 10 -4 10 -10z m-90 -10 c-19 -13 -30 -13 -30
0 0 6 10 10 23 10 18 0 19 -2 7 -10z m606 -27 c-2 -2 -26 -6 -54 -8 -27 -3
-60 -8 -73 -13 -13 -5 -30 -7 -37 -5 -7 3 -18 1 -25 -5 -7 -5 -25 -10 -42 -10
-16 0 -47 -8 -67 -16 -47 -20 -65 -21 -50 -3 12 15 61 32 115 42 22 3 37 12
37 20 0 11 20 15 88 17 76 3 122 -5 108 -19z m77 20 c-7 -2 -21 -2 -30 0 -10
3 -4 5 12 5 17 0 24 -2 18 -5z m-701 -25 c5 -15 -27 -48 -46 -48 -29 0 -25 19
5 25 20 5 29 11 25 21 -3 8 -1 14 3 14 5 0 11 -5 13 -12z m68 -8 c0 -5 -7 -10
-15 -10 -8 0 -15 5 -15 10 0 6 7 10 15 10 8 0 15 -4 15 -10z m-30 -35 c-14
-16 -50 -21 -50 -6 0 11 18 19 44 20 15 1 16 -2 6 -14z m170 -5 c0 -5 -7 -10
-15 -10 -8 0 -15 5 -15 10 0 6 7 10 15 10 8 0 15 -4 15 -10z m-125 -10 c3 -6
-4 -10 -17 -10 -18 0 -20 2 -8 10 19 12 18 12 25 0z m815 1 c0 -14 -18 -23
-31 -15 -8 4 -7 9 2 15 18 11 29 11 29 0z m50 -21 c0 -5 -4 -10 -10 -10 -5 0
-10 5 -10 10 0 6 5 10 10 10 6 0 10 -4 10 -10z m307 -66 c-3 -3 -12 -4 -19 -1
-8 3 -5 6 6 6 11 1 17 -2 13 -5z m43 -23 c0 -5 -6 -14 -14 -20 -10 -9 -15 -8
-19 3 -3 8 -3 17 0 20 9 9 33 7 33 -3z m245 -31 c4 -6 -6 -10 -22 -10 -22 0
-25 2 -13 10 19 12 27 12 35 0z m330 -70 c4 -6 -5 -10 -19 -10 -14 0 -26 5
-26 10 0 6 9 10 19 10 11 0 23 -4 26 -10z m-15 -161 c0 -10 -12 -11 -34 -3 -9
3 -14 10 -11 14 6 10 45 1 45 -11z"/>
<path d="M2058 3963 c7 -3 16 -2 19 1 4 3 -2 6 -13 5 -11 0 -14 -3 -6 -6z"/>
<path d="M2025 2430 c-13 -5 -14 -9 -5 -9 8 0 24 4 35 9 13 5 14 9 5 9 -8 0
-24 -4 -35 -9z"/>
<path d="M2018 2403 c7 -3 16 -2 19 1 4 3 -2 6 -13 5 -11 0 -14 -3 -6 -6z"/>
<path d="M320 900 c0 -5 5 -10 10 -10 6 0 10 5 10 10 0 6 -4 10 -10 10 -5 0
-10 -4 -10 -10z"/>
<path d="M638 913 c7 -3 16 -2 19 1 4 3 -2 6 -13 5 -11 0 -14 -3 -6 -6z"/>
<path d="M3465 4344 c-16 -7 -47 -13 -67 -14 -23 0 -38 -5 -38 -12 -1 -9 -5
-8 -13 3 -18 24 -44 30 -58 13 -6 -8 -10 -16 -8 -17 2 -1 18 -12 36 -25 41
-28 122 -32 119 -5 0 11 7 18 19 18 34 3 65 17 65 30 0 20 -22 23 -55 9z"/>
<path d="M3411 4057 c46 -25 149 -56 154 -46 4 5 -6 9 -20 9 -15 0 -24 4 -20
10 8 13 -26 25 -90 34 -47 7 -48 6 -24 -7z"/>
<path d="M3228 3983 c7 -3 16 -2 19 1 4 3 -2 6 -13 5 -11 0 -14 -3 -6 -6z"/>
<path d="M370 3860 c-8 -5 -11 -12 -7 -16 3 -4 13 -1 22 6 12 10 15 10 15 -4
0 -9 -4 -16 -10 -16 -16 0 -12 -17 6 -24 9 -4 13 -2 8 5 -4 6 -1 15 7 19 10 7
10 11 0 24 -15 18 -21 19 -41 6z"/>
<path d="M964 3835 c-10 -8 -14 -15 -8 -15 6 0 17 7 24 15 16 19 9 19 -16 0z"/>
<path d="M355 3723 c-5 -21 -9 -57 -10 -79 -1 -31 -8 -48 -30 -68 -15 -14 -24
-26 -20 -26 4 0 2 -7 -5 -15 -7 -8 -18 -15 -24 -15 -6 0 -4 5 4 10 8 5 10 10
5 10 -6 0 -20 -6 -31 -14 -29 -21 -85 -6 -127 34 -30 28 -33 35 -23 56 6 13
17 25 23 26 20 5 -74 100 -94 96 -16 -3 -18 -20 -21 -181 -1 -97 -1 -177 1
-177 1 0 20 9 42 20 30 15 51 19 85 14 34 -4 55 0 85 15 21 12 46 21 53 21 8
0 27 10 42 23 15 12 42 30 59 39 17 9 35 28 40 40 5 13 21 30 35 37 14 8 26
18 26 23 0 4 12 8 26 8 16 0 23 -4 18 -11 -4 -7 -1 -10 7 -7 8 3 13 12 11 22
-2 9 2 16 8 16 5 0 10 10 10 21 0 16 -5 20 -19 16 -12 -3 -22 1 -25 9 -8 21
-54 17 -68 -6 -7 -11 -21 -20 -31 -20 -16 0 -18 7 -15 47 2 38 0 48 -13 51
-12 2 -19 -7 -24 -35z"/>
<path d="M530 3704 c0 -8 5 -12 10 -9 6 3 10 10 10 16 0 5 -4 9 -10 9 -5 0
-10 -7 -10 -16z"/>
<path d="M685 3690 c-13 -6 -15 -9 -5 -9 8 0 22 4 30 9 18 12 2 12 -25 0z"/>
<path d="M143 3619 c-25 -9 -31 -29 -9 -29 14 0 42 27 35 34 -2 2 -14 0 -26
-5z"/>
<path d="M4135 3580 c-3 -5 1 -10 9 -10 8 0 18 5 21 10 3 6 -1 10 -9 10 -8 0
-18 -4 -21 -10z"/>
<path d="M4140 3545 c0 -16 43 -31 59 -20 25 15 11 35 -24 35 -24 0 -35 -5
-35 -15z"/>
<path d="M4237 3508 c-7 -27 2 -68 14 -68 14 0 11 38 -3 43 -10 4 -10 7 0 18
14 15 16 29 3 29 -5 0 -11 -10 -14 -22z"/>
<path d="M4301 3486 c-8 -10 -9 -16 -1 -21 16 -10 12 -25 -7 -26 -10 0 -2 -5
17 -11 19 -5 38 -16 43 -23 5 -9 23 -12 57 -10 35 3 54 -1 65 -12 15 -14 31
-14 88 3 13 4 17 1 15 -12 -2 -9 3 -19 10 -21 9 -3 12 11 12 50 l0 55 -90 7
c-50 4 -92 11 -95 15 -3 5 -22 6 -42 3 -26 -4 -34 -3 -29 5 10 17 -29 15 -43
-2z"/>
<path d="M3608 3163 c7 -3 16 -2 19 1 4 3 -2 6 -13 5 -11 0 -14 -3 -6 -6z"/>
<path d="M4119 3118 c-1 -21 -2 -44 -3 -50 -1 -7 6 -12 15 -10 9 1 19 -4 23
-13 7 -20 30 -19 47 2 12 13 12 17 1 21 -18 6 -68 55 -75 73 -3 8 -6 -3 -8
-23z"/>
<path d="M4071 3064 c0 -11 3 -14 6 -6 3 7 2 16 -1 19 -3 4 -6 -2 -5 -13z"/>
<path d="M75 3030 c-3 -5 -1 -10 4 -10 6 0 11 5 11 10 0 6 -2 10 -4 10 -3 0
-8 -4 -11 -10z"/>
<path d="M116 3011 c-18 -7 -18 -8 -2 -14 10 -4 24 -1 32 8 17 17 4 19 -30 6z"/>
<path d="M4195 3000 c3 -5 8 -10 11 -10 2 0 4 5 4 10 0 6 -5 10 -11 10 -5 0
-7 -4 -4 -10z"/>
<path d="M4017 2980 c-25 -30 -21 -43 8 -24 14 9 25 23 25 30 0 20 -13 17 -33
-6z"/>
<path d="M4200 2970 c0 -5 9 -10 19 -10 11 0 23 5 26 10 4 6 -5 10 -19 10 -14
0 -26 -4 -26 -10z"/>
<path d="M180 2931 c0 -8 34 -21 55 -21 11 1 -35 29 -47 30 -5 0 -8 -4 -8 -9z"/>
<path d="M314 2875 c-10 -8 -14 -15 -8 -15 5 0 19 7 30 15 10 8 14 15 8 15 -5
0 -19 -7 -30 -15z"/>
<path d="M4165 2838 c8 -26 25 -47 26 -32 0 5 2 19 5 32 3 17 -1 22 -17 22
-16 0 -19 -4 -14 -22z"/>
<path d="M317 2823 c3 -7 -1 -13 -8 -13 -11 0 -11 -3 1 -10 13 -8 12 -10 -2
-10 -28 0 -21 -28 12 -45 45 -23 60 -19 60 14 0 17 -5 33 -10 36 -6 4 -8 15
-5 25 5 16 1 19 -23 17 -19 -1 -28 -7 -25 -14z"/>
<path d="M4050 2744 c0 -8 5 -12 10 -9 6 3 10 10 10 16 0 5 -4 9 -10 9 -5 0
-10 -7 -10 -16z"/>
<path d="M4010 2739 c0 -5 5 -7 10 -4 6 3 10 8 10 11 0 2 -4 4 -10 4 -5 0 -10
-5 -10 -11z"/>
<path d="M3970 2695 c-7 -8 -21 -15 -32 -15 -11 0 -35 -16 -52 -35 -18 -19
-36 -35 -39 -35 -16 0 -120 -111 -111 -119 5 -4 43 -16 84 -26 78 -19 119 -34
90 -34 -8 0 -32 3 -53 8 -28 7 -37 6 -34 -2 3 -7 9 -11 15 -10 7 2 9 -4 5 -14
-5 -12 -2 -15 10 -10 17 6 42 -24 30 -37 -3 -3 -1 -6 5 -6 7 0 12 5 12 11 0 6
6 9 14 6 8 -3 22 0 32 8 15 11 16 15 5 29 -12 14 -11 16 8 16 11 0 21 5 21 11
0 6 9 22 20 36 28 36 26 71 -4 83 l-24 9 18 48 c10 26 22 48 26 49 5 1 27 6
49 10 l40 7 -33 9 c-23 6 -38 5 -48 -3 -11 -9 -15 -8 -20 5 -8 20 -18 20 -34
1z"/>
<path d="M3495 2680 c-3 -5 1 -10 9 -10 9 0 16 5 16 10 0 6 -4 10 -9 10 -6 0
-13 -4 -16 -10z"/>
<path d="M3503 2623 c9 -2 23 -2 30 0 6 3 -1 5 -18 5 -16 0 -22 -2 -12 -5z"/>
<path d="M3511 2486 c2 -2 18 -6 34 -10 22 -5 26 -4 15 4 -14 9 -59 15 -49 6z"/>
<path d="M3593 2475 c0 -10 10 -15 26 -14 16 0 20 3 11 6 -8 3 -20 10 -26 14
-7 5 -11 3 -11 -6z"/>
<path d="M3707 2473 c-18 -17 -6 -33 21 -27 35 9 39 13 22 24 -18 11 -34 13
-43 3z"/>
<path d="M4560 2374 c-19 -7 -45 -13 -57 -13 -13 -1 -23 -5 -23 -9 0 -12 -70
-32 -111 -32 -18 0 -67 -11 -109 -24 -196 -64 -298 -95 -333 -101 -20 -4 -39
-11 -42 -15 -8 -13 128 -20 170 -9 21 6 93 12 160 13 66 0 110 2 97 4 -22 3
-23 4 -5 17 10 8 28 15 41 15 13 0 21 4 18 9 -10 16 78 21 95 5 12 -11 19 -12
24 -4 4 6 5 12 4 13 -68 36 -64 49 22 70 81 18 92 26 87 54 -3 18 -6 19 -38 7z"/>
<path d="M65 2360 c-3 -5 -1 -10 4 -10 6 0 11 5 11 10 0 6 -2 10 -4 10 -3 0
-8 -4 -11 -10z"/>
<path d="M4508 2293 c7 -3 16 -2 19 1 4 3 -2 6 -13 5 -11 0 -14 -3 -6 -6z"/>
<path d="M4520 2240 c0 -5 5 -10 10 -10 6 0 10 5 10 10 0 6 -4 10 -10 10 -5 0
-10 -4 -10 -10z"/>
<path d="M4468 2173 c7 -3 16 -2 19 1 4 3 -2 6 -13 5 -11 0 -14 -3 -6 -6z"/>
<path d="M3888 2143 c7 -3 16 -2 19 1 4 3 -2 6 -13 5 -11 0 -14 -3 -6 -6z"/>
<path d="M4080 2111 c0 -17 3 -18 25 -8 21 10 22 13 7 19 -27 11 -32 9 -32
-11z"/>
<path d="M4358 2110 c-20 -18 -24 -40 -8 -40 11 0 33 37 28 49 -2 5 -11 1 -20
-9z"/>
<path d="M4225 2100 c-4 -6 -4 -14 -1 -17 3 -3 1 -12 -5 -20 -9 -10 -8 -17 1
-28 22 -26 40 -18 40 19 0 36 -23 66 -35 46z"/>
<path d="M4391 2078 c-1 -21 3 -25 19 -21 23 6 27 23 6 23 -8 0 -17 6 -19 13
-3 6 -6 0 -6 -15z"/>
<path d="M4460 2060 c-13 -8 -13 -10 2 -10 9 0 20 5 23 10 8 13 -5 13 -25 0z"/>
<path d="M4330 2044 c0 -8 5 -12 10 -9 6 4 8 11 5 16 -9 14 -15 11 -15 -7z"/>
<path d="M4364 2015 c3 -13 11 -37 18 -52 6 -15 10 -34 9 -40 -1 -7 3 -13 10
-13 6 0 9 -7 5 -15 -3 -9 0 -15 8 -15 8 0 16 7 20 15 3 8 15 15 26 15 11 0 20
5 20 11 0 5 -5 7 -10 4 -15 -9 -32 44 -24 78 6 27 4 28 -17 22 -13 -4 -27 -12
-30 -17 -4 -6 -9 -6 -13 1 -4 6 -2 11 3 11 6 0 11 5 11 10 0 6 -9 10 -21 10
-17 0 -20 -4 -15 -25z"/>
<path d="M4310 2023 c0 -4 5 -15 10 -23 8 -13 10 -13 10 2 0 9 -4 20 -10 23
-5 3 -10 3 -10 -2z"/>
<path d="M4272 2011 c3 -15 -15 -41 -28 -41 -8 0 -19 -11 -24 -25 -6 -15 -17
-25 -29 -25 -30 0 -34 -49 -5 -82 13 -17 21 -35 17 -44 -4 -12 -1 -15 13 -12
21 4 32 35 33 97 1 33 4 42 15 38 21 -8 39 19 32 48 -4 14 -2 25 4 25 18 0 11
18 -10 23 -10 3 -19 2 -18 -2z"/>
<path d="M4457 1885 c-7 -16 8 -29 23 -20 15 9 12 35 -4 35 -8 0 -16 -7 -19
-15z"/>
<path d="M4527 1893 c-14 -13 -6 -33 13 -33 13 0 20 7 20 20 0 19 -20 27 -33
13z"/>
<path d="M4280 1886 c0 -2 9 -6 20 -9 11 -3 18 -1 14 4 -5 9 -34 13 -34 5z"/>
<path d="M4391 1856 c-7 -8 -8 -17 -3 -20 6 -3 13 1 16 10 9 23 2 28 -13 10z"/>
<path d="M4120 1842 c0 -27 8 -31 34 -19 19 9 21 14 10 24 -19 19 -44 16 -44
-5z"/>
<path d="M4424 1838 c-4 -6 0 -16 8 -22 8 -6 13 -16 11 -23 -2 -6 1 -14 6 -18
6 -3 11 2 12 12 0 11 3 13 6 5 3 -7 -1 -20 -8 -28 -11 -14 -10 -18 4 -29 9 -6
14 -15 11 -18 -4 -3 -3 -14 1 -24 5 -10 9 -21 9 -25 2 -17 19 -21 27 -5 13 23
33 22 26 -2 -6 -24 21 -37 30 -15 3 9 1 25 -5 35 -7 10 -12 31 -12 45 0 19 -4
25 -14 21 -10 -4 -17 4 -21 24 -4 16 -11 29 -15 29 -5 0 -7 6 -4 14 3 7 -2 16
-11 20 -9 3 -13 2 -10 -3 3 -5 1 -12 -4 -15 -5 -3 -11 3 -14 14 -6 22 -22 26
-33 8z"/>
<path d="M4085 1810 c-3 -5 -1 -10 4 -10 6 0 11 5 11 10 0 6 -2 10 -4 10 -3 0
-8 -4 -11 -10z"/>
<path d="M4330 1790 c-13 -24 2 -27 24 -4 20 19 20 24 1 24 -8 0 -19 -9 -25
-20z"/>
<path d="M4287 1753 c-13 -12 -7 -23 13 -23 13 0 18 5 14 15 -7 16 -17 19 -27
8z"/>
<path d="M4330 1740 c0 -5 7 -10 15 -10 8 0 15 5 15 10 0 6 -7 10 -15 10 -8 0
-15 -4 -15 -10z"/>
<path d="M4305 1710 c-3 -5 -2 -10 4 -10 5 0 12 -8 14 -17 3 -11 5 -7 6 10 1
27 -12 36 -24 17z"/>
<path d="M4466 1633 c-9 -9 -7 -33 3 -33 12 0 22 28 12 34 -5 3 -11 3 -15 -1z"/>
<path d="M4507 1613 c-12 -11 -8 -23 8 -23 8 0 15 7 15 15 0 16 -12 20 -23 8z"/>
<path d="M4410 1565 c-14 -16 -10 -18 14 -9 9 3 16 10 16 15 0 14 -16 11 -30
-6z"/>
<path d="M4520 1550 c0 -5 4 -10 9 -10 6 0 13 5 16 10 3 6 -1 10 -9 10 -9 0
-16 -4 -16 -10z"/>
<path d="M4573 1435 c-3 -9 -3 -18 0 -21 9 -9 27 6 27 22 0 19 -19 18 -27 -1z"/>
<path d="M3962 1262 c-1 -37 -7 -68 -12 -70 -12 -4 -14 -32 -2 -32 17 1 44 82
39 117 -10 62 -22 55 -25 -15z"/>
<path d="M3872 1247 l-31 -44 34 -19 c19 -10 38 -15 42 -11 11 12 9 110 -3
114 -6 2 -24 -16 -42 -40z"/>
<path d="M3368 1263 c7 -3 16 -2 19 1 4 3 -2 6 -13 5 -11 0 -14 -3 -6 -6z"/>
<path d="M2945 1240 c3 -5 11 -10 16 -10 6 0 7 5 4 10 -3 6 -11 10 -16 10 -6
0 -7 -4 -4 -10z"/>
<path d="M3361 1206 c-17 -9 -20 -15 -11 -21 13 -8 60 13 60 27 0 12 -21 9
-49 -6z"/>
<path d="M3992 1170 c-7 -12 -8 -21 -2 -25 13 -8 30 3 30 20 0 23 -15 25 -28
5z"/>
<path d="M3398 1163 c-19 -5 -24 -18 -9 -27 13 -8 38 3 45 20 5 14 -3 16 -36
7z"/>
<path d="M4370 1155 c0 -8 2 -15 4 -15 2 0 6 7 10 15 3 8 1 15 -4 15 -6 0 -10
-7 -10 -15z"/>
<path d="M3482 1149 c-26 -10 -21 -29 7 -29 10 0 21 9 24 20 6 22 3 23 -31 9z"/>
<path d="M3346 1103 c2 -38 24 -117 35 -124 6 -3 6 -16 -1 -33 -8 -23 -7 -28
13 -36 20 -8 21 -9 2 -10 -19 -1 -18 -2 3 -10 12 -5 22 -17 22 -26 0 -9 11
-27 25 -40 14 -13 25 -31 25 -41 0 -10 16 -35 35 -55 19 -20 36 -45 38 -55 1
-10 6 -23 10 -30 10 -17 16 -96 8 -108 -13 -18 -33 -86 -27 -92 3 -3 21 5 42
17 20 13 71 38 113 56 58 26 69 34 48 34 -16 0 -26 4 -22 10 3 6 -5 14 -19 20
-14 5 -26 12 -26 15 0 4 4 4 9 1 5 -3 23 -3 40 0 28 6 30 8 18 23 -8 9 -17 26
-20 39 -4 18 -1 22 19 22 22 0 23 2 12 20 -7 11 -18 20 -24 20 -5 0 -20 9 -32
20 -12 11 -26 20 -32 20 -5 0 -10 7 -10 15 0 8 -7 15 -15 15 -8 0 -15 5 -15
10 0 6 4 10 9 10 5 0 12 15 15 33 6 29 8 30 20 14 12 -16 15 -16 26 -2 16 19
3 66 -19 73 -10 3 -12 0 -8 -12 4 -9 2 -16 -3 -16 -5 0 -10 10 -12 23 -2 14
-10 22 -23 22 -23 0 -51 23 -41 33 4 3 11 0 15 -7 6 -9 11 -10 15 -2 4 6 -2
16 -12 22 -13 8 -17 20 -14 40 5 34 -10 38 -30 7 l-14 -22 -22 22 c-23 23 -42
29 -42 12 0 -18 -18 -10 -23 10 -6 25 -27 26 -28 3 -1 -10 -4 -2 -8 17 -4 26
-11 35 -26 36 -11 1 -27 5 -35 8 -11 5 -15 -1 -14 -21z m262 -288 c-6 -14 -15
-25 -19 -25 -4 0 -2 11 4 25 7 14 15 25 19 25 4 0 2 -11 -4 -25z m-41 -2 c2
-6 -3 -13 -12 -16 -10 -5 -15 0 -15 14 0 21 21 22 27 2z m-61 -29 c-4 -12 -10
-14 -17 -7 -5 5 -7 17 -3 27 4 12 10 14 17 7 5 -5 7 -17 3 -27z m31 -46 c-3
-8 -6 -5 -6 6 -1 11 2 17 5 13 3 -3 4 -12 1 -19z m158 -28 c3 -5 1 -10 -4 -10
-6 0 -11 5 -11 10 0 6 2 10 4 10 3 0 8 -4 11 -10z"/>
<path d="M3555 1120 c-3 -5 1 -10 9 -10 9 0 16 5 16 10 0 6 -4 10 -9 10 -6 0
-13 -4 -16 -10z"/>
<path d="M3978 1035 c-6 -30 -3 -43 8 -33 3 4 4 19 2 35 l-3 28 -7 -30z"/>
<path d="M4320 1046 c0 -9 5 -16 10 -16 6 0 10 4 10 9 0 6 -4 13 -10 16 -5 3
-10 -1 -10 -9z"/>
<path d="M3601 1034 c0 -11 3 -14 6 -6 3 7 2 16 -1 19 -3 4 -6 -2 -5 -13z"/>
<path d="M3925 1030 c-4 -12 -5 -24 -2 -27 3 -2 8 5 12 17 4 12 5 24 2 27 -3
2 -8 -5 -12 -17z"/>
<path d="M3876 934 c-4 -9 -4 -19 -2 -22 10 -9 36 8 36 23 0 20 -26 19 -34 -1z"/>
<path d="M3960 930 c0 -11 11 -27 24 -35 13 -9 30 -30 36 -46 11 -25 17 -29
37 -25 23 6 34 -9 12 -16 -7 -2 -9 -13 -4 -27 4 -13 12 -20 21 -17 16 6 29
-10 14 -19 -14 -8 -13 -45 1 -45 6 0 8 -7 5 -16 -3 -8 -2 -12 4 -9 6 3 10 31
10 61 0 33 -4 53 -10 49 -5 -3 -14 12 -20 35 -6 22 -16 39 -22 37 -6 -1 -13 4
-15 11 -3 6 0 12 7 12 6 0 8 5 4 11 -4 8 -9 7 -15 -2 -8 -11 -12 -10 -24 6
-45 60 -65 71 -65 35z"/>
<path d="M3806 914 c-4 -9 -4 -19 -2 -21 8 -8 26 8 26 23 0 19 -16 18 -24 -2z"/>
<path d="M3733 895 c-3 -9 -3 -18 0 -21 9 -9 27 6 27 22 0 19 -19 18 -27 -1z"/>
<path d="M4100 821 c0 -6 5 -13 10 -16 6 -3 10 1 10 9 0 9 -4 16 -10 16 -5 0
-10 -4 -10 -9z"/>
<path d="M845 760 c3 -5 13 -10 21 -10 9 0 12 -5 8 -12 -5 -7 -3 -8 6 -3 10 6
9 11 -5 22 -22 15 -39 17 -30 3z"/>
<path d="M450 731 l-25 -7 25 -7 c16 -4 30 -1 40 8 12 13 12 15 0 14 -8 -1
-26 -4 -40 -8z"/>
<path d="M88 713 c7 -3 16 -2 19 1 4 3 -2 6 -13 5 -11 0 -14 -3 -6 -6z"/>
<path d="M150 710 c-17 -10 -3 -16 50 -19 25 -2 50 -7 57 -12 12 -10 60 -2 68
11 3 5 -9 7 -27 5 -17 -3 -36 -1 -42 4 -16 12 -91 20 -106 11z"/>
<path d="M345 710 c-3 -5 3 -10 14 -10 12 0 21 5 21 10 0 6 -6 10 -14 10 -8 0
-18 -4 -21 -10z"/>
<path d="M4339 700 c-3 -14 -2 -38 2 -55 5 -24 7 -27 13 -13 5 10 4 35 -1 55
-8 34 -10 35 -14 13z"/>
<path d="M10 680 c-13 -8 -13 -10 2 -10 9 0 20 5 23 10 8 13 -5 13 -25 0z"/>
<path d="M1431 674 c0 -11 3 -14 6 -6 3 7 2 16 -1 19 -3 4 -6 -2 -5 -13z"/>
<path d="M58 673 c6 -2 18 -2 25 0 6 3 1 5 -13 5 -14 0 -19 -2 -12 -5z"/>
<path d="M138 673 c7 -3 16 -2 19 1 4 3 -2 6 -13 5 -11 0 -14 -3 -6 -6z"/>
<path d="M1390 670 c0 -5 4 -10 9 -10 6 0 13 5 16 10 3 6 -1 10 -9 10 -9 0
-16 -4 -16 -10z"/>
<path d="M1350 650 c-20 -12 -5 -24 16 -12 9 5 12 12 7 15 -5 3 -15 2 -23 -3z"/>
<path d="M1166 642 c-3 -6 1 -13 10 -16 23 -9 28 -2 10 13 -8 7 -17 8 -20 3z"/>
<path d="M1453 638 c15 -10 67 -10 67 0 0 4 -18 7 -40 7 -23 1 -34 -2 -27 -7z"/>
<path d="M1904 591 c3 -5 15 -7 26 -4 28 7 25 13 -6 13 -14 0 -23 -4 -20 -9z"/>
<path d="M1301 571 c-8 -5 -9 -11 -3 -15 13 -8 42 3 42 15 0 11 -21 11 -39 0z"/>
<path d="M3840 570 c0 -5 5 -10 10 -10 6 0 10 5 10 10 0 6 -4 10 -10 10 -5 0
-10 -4 -10 -10z"/>
<path d="M35 560 c3 -5 8 -10 11 -10 2 0 4 5 4 10 0 6 -5 10 -11 10 -5 0 -7
-4 -4 -10z"/>
<path d="M1757 556 c-7 -17 18 -15 35 2 9 9 7 12 -9 12 -11 0 -23 -6 -26 -14z"/>
<path d="M2007 544 c-11 -12 3 -24 29 -24 16 0 24 5 22 13 -5 13 -40 22 -51
11z"/>
<path d="M3393 508 c4 -13 0 -26 -8 -32 -8 -6 -30 -40 -48 -76 -38 -76 -67
-94 -144 -92 -46 1 -53 -1 -53 -18 0 -21 24 -27 35 -10 3 6 17 10 30 10 61 0
190 48 234 86 11 10 7 83 -7 117 -17 40 -49 53 -39 15z"/>
<path d="M3110 499 c0 -4 4 -10 9 -13 4 -3 11 -19 15 -36 3 -17 10 -29 15 -26
5 3 7 15 4 26 -3 11 0 20 6 20 6 0 11 8 11 18 0 14 -8 19 -30 19 -16 0 -30 -4
-30 -8z"/>
<path d="M3986 491 c-4 -7 -5 -15 -2 -18 9 -9 19 4 14 18 -4 11 -6 11 -12 0z"/>
<path d="M4065 480 c-7 -11 12 -50 25 -50 5 0 10 -15 12 -32 3 -34 20 -42 26
-13 4 20 -34 105 -47 105 -6 0 -13 -4 -16 -10z"/>
<path d="M1138 443 c7 -3 16 -2 19 1 4 3 -2 6 -13 5 -11 0 -14 -3 -6 -6z"/>
<path d="M3043 394 c-13 -43 -14 -57 -5 -63 7 -4 14 -22 15 -39 1 -22 7 -32
18 -32 10 0 23 -16 33 -40 15 -39 38 -51 52 -29 10 17 -17 61 -31 49 -9 -8
-15 6 -24 52 -7 35 -17 71 -22 81 -6 10 -7 32 -4 48 12 52 -13 31 -32 -27z"/>
<path d="M4371 419 c-1 -17 5 -29 15 -33 13 -5 14 -3 6 6 -5 7 -12 22 -15 33
-4 16 -5 14 -6 -6z"/>
<path d="M1168 413 c-10 -2 -18 -9 -18 -14 0 -14 26 -11 40 6 13 15 9 16 -22
8z"/>
<path d="M4140 402 c0 -6 6 -12 13 -15 8 -3 5 -10 -10 -22 -26 -18 -32 -65 -9
-65 11 0 13 -9 9 -35 -4 -27 -2 -36 12 -41 13 -5 15 -14 10 -41 -5 -27 -3 -34
7 -30 18 6 13 103 -7 133 -17 27 -20 64 -4 64 14 0 7 52 -8 58 -7 2 -13 -1
-13 -6z"/>
<path d="M1935 370 c3 -5 12 -7 20 -3 21 7 19 13 -6 13 -11 0 -18 -4 -14 -10z"/>
<path d="M3135 371 c-3 -5 -1 -12 5 -16 5 -3 10 1 10 9 0 18 -6 21 -15 7z"/>
<path d="M396 345 c-3 -8 -2 -15 3 -15 5 0 14 7 21 15 10 12 10 15 -3 15 -8 0
-17 -7 -21 -15z"/>
<path d="M4308 315 c-6 -30 -3 -43 8 -33 3 4 4 19 2 35 l-3 28 -7 -30z"/>
<path d="M1890 316 c0 -2 7 -6 15 -10 8 -3 15 -1 15 4 0 6 -7 10 -15 10 -8 0
-15 -2 -15 -4z"/>
<path d="M3600 300 c0 -5 5 -10 11 -10 5 0 7 5 4 10 -3 6 -8 10 -11 10 -2 0
-4 -4 -4 -10z"/>
<path d="M3617 273 c-10 -16 0 -61 17 -78 9 -9 16 -24 16 -33 0 -10 9 -25 20
-35 19 -16 20 -16 20 8 0 13 -5 27 -11 31 -6 3 -8 16 -5 27 3 13 -1 25 -12 33
-9 7 -17 20 -17 30 0 19 -20 30 -28 17z"/>
<path d="M2935 245 c34 -16 75 -19 75 -6 0 9 -50 21 -84 20 -18 0 -16 -3 9
-14z"/>
<path d="M3368 242 c-8 -30 8 -50 17 -22 4 12 3 26 -3 32 -6 6 -11 2 -14 -10z"/>
<path d="M1805 231 c-10 -17 12 -21 25 -6 10 12 10 15 -3 15 -9 0 -18 -4 -22
-9z"/>
<path d="M4236 178 c-9 -37 -7 -43 9 -22 16 21 19 44 6 44 -5 0 -11 -10 -15
-22z"/>
<path d="M3383 175 c-3 -9 -3 -18 0 -21 9 -9 27 6 27 22 0 19 -19 18 -27 -1z"/>
<path d="M4570 174 c0 -8 5 -12 10 -9 6 3 10 10 10 16 0 5 -4 9 -10 9 -5 0
-10 -7 -10 -16z"/>
<path d="M915 140 c-3 -5 -1 -10 4 -10 6 0 11 5 11 10 0 6 -2 10 -4 10 -3 0
-8 -4 -11 -10z"/>
<path d="M3407 128 c-13 -13 -16 -23 -9 -30 7 -7 16 0 26 21 19 35 10 39 -17
9z"/>
<path d="M1745 130 c-3 -5 -2 -10 4 -10 5 0 13 5 16 10 3 6 2 10 -4 10 -5 0
-13 -4 -16 -10z"/>
<path d="M3450 111 c10 -21 30 -37 30 -26 0 14 -21 45 -31 45 -6 0 -6 -7 1
-19z"/>
<path d="M3718 85 c-4 -17 -1 -25 8 -25 8 0 14 11 14 25 0 14 -4 25 -9 25 -5
0 -11 -11 -13 -25z"/>
<path d="M3913 93 c-18 -6 -16 -33 1 -33 19 0 31 19 20 30 -5 4 -15 5 -21 3z"/>
<path d="M4013 93 c-7 -2 -13 -11 -13 -19 0 -8 6 -14 13 -14 21 0 40 17 33 29
-8 12 -13 12 -33 4z"/>
<path d="M3800 75 c0 -10 7 -15 18 -13 21 4 19 22 -2 26 -10 2 -16 -3 -16 -13z"/>
<path d="M4110 75 c0 -10 7 -15 18 -13 21 4 19 22 -2 26 -10 2 -16 -3 -16 -13z"/>
<path d="M3645 70 c-3 -5 -1 -10 4 -10 6 0 11 5 11 10 0 6 -2 10 -4 10 -3 0
-8 -4 -11 -10z"/>
<path d="M3540 60 c0 -5 7 -10 15 -10 8 0 15 5 15 10 0 6 -7 10 -15 10 -8 0
-15 -4 -15 -10z"/>
<path d="M4210 46 c0 -27 15 -42 25 -26 8 13 -3 50 -16 50 -5 0 -9 -11 -9 -24z"/>
<path d="M4516 37 c-5 -15 -6 -31 -2 -34 11 -11 18 5 14 34 l-4 28 -8 -28z"/>
<path d="M71 26 c-7 -8 -8 -17 -3 -19 4 -3 13 3 20 14 14 22 0 26 -17 5z"/>
<path d="M1798 3 c6 -2 18 -2 25 0 6 3 1 5 -13 5 -14 0 -19 -2 -12 -5z"/>
</g>
</svg>
